<?xml version="1.0" encoding="UTF-8" standalone="no"?>
<svg
   xmlns:dc="http://purl.org/dc/elements/1.1/"
   xmlns:cc="http://creativecommons.org/ns#"
   xmlns:rdf="http://www.w3.org/1999/02/22-rdf-syntax-ns#"
   xmlns:svg="http://www.w3.org/2000/svg"
   xmlns="http://www.w3.org/2000/svg"
   xmlns:sodipodi="http://sodipodi.sourceforge.net/DTD/sodipodi-0.dtd"
   xmlns:inkscape="http://www.inkscape.org/namespaces/inkscape"
   width="24px"
   height="24px"
   viewBox="0 0 24 24"
   version="1.1"
   id="svg4912"
   inkscape:version="0.91 r13725"
   sodipodi:docname="icon-well-transitioned.svg">
  <metadata
     id="metadata4921">
    <rdf:RDF>
      <cc:Work
         rdf:about="">
        <dc:format>image/svg+xml</dc:format>
        <dc:type
           rdf:resource="http://purl.org/dc/dcmitype/StillImage" />
        <dc:title></dc:title>
      </cc:Work>
    </rdf:RDF>
  </metadata>
  <defs
     id="defs4919" />
  <sodipodi:namedview
     pagecolor="#ffffff"
     bordercolor="#666666"
     borderopacity="1"
     objecttolerance="10"
     gridtolerance="10"
     guidetolerance="10"
     inkscape:pageopacity="0"
     inkscape:pageshadow="2"
     inkscape:window-width="1916"
     inkscape:window-height="1161"
     id="namedview4917"
     showgrid="false"
     inkscape:zoom="27.812867"
     inkscape:cx="15.567534"
     inkscape:cy="16.765745"
     inkscape:window-x="1920"
     inkscape:window-y="18"
     inkscape:window-maximized="0"
     inkscape:current-layer="icon-circle-add" />
  <g
     id="icon-circle-add"
     fill="currentColor"
     fill-rule="nonzero">
    <path
       d="m 13,11 4,0 c 0.552285,0 1,0.447715 1,1 0,0.552285 -0.447715,1 -1,1 l -4,0 c -4.0495802,-0.02474 2.09057,-0.0052 -2,0 L 7,13 C 6.4477152,13 6,12.552285 6,12 6,11.447715 6.4477152,11 7,11 l 4,0 m 1,13 C 5.372583,24 0,18.627417 0,12 0,5.372583 5.372583,0 12,0 c 6.627417,0 12,5.372583 12,12 0,6.627417 -5.372583,12 -12,12 z m 0,-2 C 17.522847,22 22,17.522847 22,12 22,6.4771525 17.522847,2 12,2 6.4771525,2 2,6.4771525 2,12 2,17.522847 6.4771525,22 12,22 Z"
       id="path4915"
       inkscape:connector-curvature="0"
       sodipodi:nodetypes="csssccssscssssssssss" />
  </g>
</svg>
