<svg xmlns="http://www.w3.org/2000/svg" xmlns:xlink="http://www.w3.org/1999/xlink" width="100" height="100" viewBox="0 0 100 100"><g transform="translate(50 50) scale(-0.69 0.69) rotate(0) translate(-50 -50)" style="fill:#000000"><svg fill="#000000" xmlns="http://www.w3.org/2000/svg" xmlns:xlink="http://www.w3.org/1999/xlink" version="1.1" x="0px" y="0px" viewBox="0 0 100 100" style="enable-background:new 0 0 100 100;" xml:space="preserve"><rect style="" width="100" height="100" fill="none"></rect><g><path d="M44,66v-5c0-0.553-0.447-1-1-1H15c-0.553,0-1,0.447-1,1v5c0,0.553,0.447,1,1,1h28C43.553,67,44,66.553,44,66z M42,65H16v-3   h26V65z"></path><path d="M84.387,83.454l-12.4-22.734c-0.078-2.788-1.299-5.288-3.215-7.058C68.914,52.418,69,51.186,69,50   c0-17.31-13.816-31.443-31-31.975V11c0-0.552-0.447-1-1-1h-3V6c0-0.552-0.447-1-1-1h-8c-0.553,0-1,0.448-1,1v4h-3   c-0.553,0-1,0.448-1,1v29c0,1.387,0.324,2.695,0.887,3.869l-3.201,3.201c-0.188,0.188-0.293,0.442-0.293,0.707   c0,0.266,0.105,0.52,0.293,0.707l2.829,2.829c0.195,0.195,0.451,0.293,0.707,0.293s0.512-0.098,0.707-0.293l3.2-3.2   c0.283,0.135,0.573,0.256,0.871,0.361V53c0,0.553,0.447,1,1,1h4c0.553,0,1-0.447,1-1v-4.525c0.298-0.105,0.588-0.227,0.871-0.361   l3.2,3.2c0.195,0.195,0.451,0.293,0.707,0.293s0.512-0.098,0.707-0.293l2.829-2.829c0.188-0.188,0.293-0.441,0.293-0.707   c0-0.265-0.105-0.52-0.293-0.707l-3.201-3.201C37.676,42.695,38,41.387,38,40v-8.949C48.011,31.576,56,39.861,56,50   c0,1.058-0.109,2.148-0.299,3.243C53.445,55.078,52,57.873,52,61c0,0.268,0.02,0.531,0.041,0.793   c-0.047,0.22-0.025,0.443,0.076,0.647c0.139,0.96,0.412,1.874,0.805,2.726C49.007,69.272,43.65,71.715,38,71.973V71   c0-0.553-0.447-1-1-1H21c-0.553,0-1,0.447-1,1v7c0,0.553,0.447,1,1,1h16c2.424,0,4.816-0.313,7.13-0.902l-7.04,15.488   c-0.141,0.31-0.114,0.67,0.069,0.955C37.344,94.827,37.66,95,38,95h39.533c2.742,0,5.314-1.465,6.715-3.822   C85.646,88.82,85.699,85.86,84.387,83.454z M29,47c-1.57,0-3.019-0.521-4.188-1.398l0.895-0.895c0.391-0.391,0.391-1.023,0-1.414   s-1.023-0.391-1.414,0L23.4,44.186c-0.499-0.666-0.881-1.422-1.118-2.24c0.154-0.046,0.303-0.116,0.425-0.238L23.414,41h12.515   C35.442,44.388,32.521,47,29,47z M26,7h6v3h-6V7z M25,12h8h3v7v11v9H25.414l0.293-0.293c0.391-0.391,0.391-1.023,0-1.414   s-1.023-0.391-1.414,0L22.586,39H22v-2.586l3.707-3.707c0.391-0.391,0.391-1.023,0-1.414s-1.023-0.391-1.414,0L22,33.586v-3.172   l3.707-3.707c0.391-0.391,0.391-1.023,0-1.414s-1.023-0.391-1.414,0L22,27.586v-3.172l3.707-3.707c0.391-0.391,0.391-1.023,0-1.414   s-1.023-0.391-1.414,0L22,21.586v-3.172l3.707-3.707c0.391-0.391,0.391-1.023,0-1.414s-1.023-0.391-1.414,0L22,15.586V12H25z    M21.222,49.192l-1.415-1.415l2.121-2.121l1.415,1.415L21.222,49.192z M30,49v3h-2v-3H30z M36.778,49.192l-2.121-2.121l1.415-1.415   l2.121,2.121L36.778,49.192z M57.912,51.877c0.045-0.485,0.057-0.965,0.068-1.442l3.727-3.728c0.391-0.391,0.391-1.023,0-1.414   s-1.023-0.391-1.414,0l-2.424,2.425c-0.104-0.951-0.285-1.878-0.512-2.787c0.127-0.049,0.248-0.12,0.35-0.224l2-2   c0.391-0.391,0.391-1.023,0-1.414s-1.023-0.391-1.414,0l-1.566,1.567c-0.277-0.762-0.59-1.506-0.949-2.224l1.93-1.93   c0.391-0.391,0.391-1.023,0-1.414s-1.023-0.391-1.414,0l-1.533,1.533c-0.418-0.664-0.867-1.307-1.355-1.918   c0.109-0.049,0.213-0.112,0.303-0.201l1-1c0.391-0.391,0.391-1.023,0-1.414s-1.023-0.391-1.414,0l-1,1   c-0.057,0.057-0.088,0.128-0.129,0.194c-0.527-0.552-1.094-1.065-1.68-1.557l1.223-1.223c0.391-0.391,0.391-1.023,0-1.414   s-1.023-0.391-1.414,0l-1.415,1.415c-0.633-0.437-1.294-0.832-1.974-1.198l0.803-0.803c0.391-0.391,0.391-1.023,0-1.414   s-1.023-0.391-1.414,0l-1,1c-0.102,0.101-0.174,0.219-0.223,0.344c-2.197-0.919-4.572-1.496-7.07-1.614v-9.007   C54.082,20.545,67,33.792,67,50c0,0.746-0.031,1.512-0.092,2.287c-0.023-0.014-0.051-0.023-0.076-0.036   c-1.066-0.592-2.254-0.987-3.514-1.153l0.389-0.391c0.391-0.391,0.391-1.023,0-1.414s-1.023-0.391-1.414,0l-1.838,1.839   c-0.869,0.136-1.701,0.377-2.482,0.722C57.953,51.861,57.932,51.869,57.912,51.877z M62,53c4.412,0,8,3.589,8,8s-3.588,8-8,8   c-0.787,0-1.547-0.119-2.266-0.332c0.355-0.393,0.352-0.996-0.027-1.375c-0.391-0.391-1.023-0.391-1.414,0l-0.498,0.499   c-0.643-0.399-1.223-0.886-1.729-1.444l3.641-3.641c0.391-0.391,0.391-1.023,0-1.414s-1.023-0.391-1.414,0l-3.389,3.389   c-0.383-0.735-0.65-1.537-0.789-2.383l5.592-5.592c0.391-0.391,0.391-1.023,0-1.414s-1.023-0.391-1.414,0l-4.135,4.137   C54.889,55.768,58.127,53,62,53z M22,72h14v1v4H22V72z M38,73.979c5.996-0.25,11.699-2.756,15.949-6.994   c-0.027-0.056-0.045-0.115-0.07-0.172c0.699,0.973,1.561,1.82,2.555,2.489c-0.135-0.051-0.268-0.103-0.395-0.164   C51.234,73.914,44.77,76.729,38,76.981V73.979z M82.527,90.156C81.486,91.91,79.572,93,77.533,93H49.414l4.293-4.293   c0.391-0.391,0.391-1.023,0-1.414s-1.023-0.391-1.414,0L46.586,93h-3.172l10.293-10.293c0.391-0.391,0.391-1.023,0-1.414   s-1.023-0.391-1.414,0L40.586,93h-1.033l1.863-4.1c0.104-0.049,0.205-0.107,0.291-0.193l12-12c0.391-0.391,0.391-1.023,0-1.414   s-1.023-0.391-1.414,0l-8.601,8.602l2.976-6.547c-0.026,0.002-0.055,0.002-0.081,0.004c4.245-1.491,8.126-3.959,11.296-7.249   C59.141,70.674,60.531,71,62,71c4.375,0,8.092-2.828,9.447-6.748c0,0.001,0,0.002,0,0.003c0.025-0.069,0.055-0.136,0.078-0.205   l11.105,20.362C83.607,86.201,83.568,88.403,82.527,90.156z"></path></g></svg></g></svg>